<svg width="50" height="50" viewBox="0 0 50 50" fill="none" xmlns="http://www.w3.org/2000/svg">
<g id="graduation-cap_3914115 1" clip-path="url(#clip0_24_346)">
<path id="Vector" d="M50.0001 17.6667V41.6667C50.0001 42.2192 49.7806 42.7491 49.3899 43.1398C48.9992 43.5305 48.4693 43.75 47.9168 43.75C47.3642 43.75 46.8343 43.5305 46.4436 43.1398C46.0529 42.7491 45.8334 42.2192 45.8334 41.6667V24.4833L30.4168 31.85C28.7912 32.8095 26.9355 33.3092 25.048 33.2958C23.0685 33.2989 21.125 32.7669 19.423 31.7562L4.04802 24.4375C2.83944 23.7876 1.82679 22.8261 1.11515 21.6528C0.403505 20.4795 0.0187968 19.1372 0.000941095 17.7651C-0.0169146 16.3929 0.332733 15.041 1.0136 13.8496C1.69448 12.6582 2.68176 11.6707 3.87302 10.9896C3.92927 10.9562 3.98969 10.925 4.04802 10.8958L19.5834 3.48333C21.2607 2.52012 23.1642 2.0211 25.0982 2.03757C27.0323 2.05405 28.927 2.58544 30.5876 3.57708L45.9522 10.8958C47.1646 11.5666 48.1777 12.5464 48.8887 13.7357C49.5997 14.9249 49.9831 16.2812 50.0001 17.6667ZM25.0459 37.4583C22.3805 37.4642 19.7608 36.7657 17.4522 35.4333L8.33344 31.0812V36.7062C8.33467 38.9302 9.0467 41.0956 10.3656 42.8864C11.6845 44.6771 13.5412 45.9995 15.6647 46.6604C18.6987 47.5315 21.8437 47.9548 25.0001 47.9167C28.1569 47.952 31.3019 47.526 34.3355 46.6521C36.459 45.9911 38.3157 44.6688 39.6346 42.8781C40.9535 41.0873 41.6655 38.9219 41.6668 36.6979V31.0917L32.3772 35.5292C30.1473 36.8103 27.6176 37.4774 25.0459 37.4625V37.4583Z" fill="white"/>
</g>
<defs>
<clipPath id="clip0_24_346">
<rect width="50" height="50" fill="white"/>
</clipPath>
</defs>
</svg>
