<svg width="50" height="50" viewBox="0 0 50 50" fill="none" xmlns="http://www.w3.org/2000/svg">
<g id="users-alt_5529124 1" clip-path="url(#clip0_24_348)">
<path id="Vector" d="M25 35.4167C23.3518 35.4167 21.7407 34.9279 20.3702 34.0123C18.9998 33.0966 17.9317 31.7951 17.301 30.2724C16.6703 28.7497 16.5052 27.0741 16.8268 25.4576C17.1483 23.8411 17.942 22.3562 19.1074 21.1908C20.2729 20.0253 21.7577 19.2317 23.3742 18.9101C24.9908 18.5886 26.6663 18.7536 28.189 19.3843C29.7117 20.0151 31.0132 21.0832 31.9289 22.4536C32.8446 23.824 33.3333 25.4352 33.3333 27.0833C33.3333 29.2935 32.4554 31.4131 30.8926 32.9759C29.3298 34.5387 27.2101 35.4167 25 35.4167ZM37.5 43.75C37.5 42.0924 36.8415 40.5027 35.6694 39.3306C34.4973 38.1585 32.9076 37.5 31.25 37.5H18.75C17.0924 37.5 15.5027 38.1585 14.3306 39.3306C13.1585 40.5027 12.5 42.0924 12.5 43.75V50H37.5V43.75ZM37.5 16.6667C35.8518 16.6667 34.2407 16.1779 32.8702 15.2623C31.4998 14.3466 30.4317 13.0451 29.801 11.5224C29.1703 9.99965 29.0052 8.32409 29.3268 6.70759C29.6483 5.09108 30.442 3.60622 31.6074 2.44078C32.7729 1.27534 34.2577 0.48167 35.8742 0.160126C37.4908 -0.161417 39.1663 0.00361068 40.689 0.634341C42.2117 1.26507 43.5132 2.33318 44.4289 3.70359C45.3446 5.074 45.8333 6.68516 45.8333 8.33334C45.8333 10.5435 44.9554 12.6631 43.3926 14.2259C41.8298 15.7887 39.7101 16.6667 37.5 16.6667ZM12.5 16.6667C10.8518 16.6667 9.24066 16.1779 7.87025 15.2623C6.49984 14.3466 5.43173 13.0451 4.801 11.5224C4.17027 9.99965 4.00525 8.32409 4.32679 6.70759C4.64833 5.09108 5.44201 3.60622 6.60744 2.44078C7.77288 1.27534 9.25774 0.48167 10.8742 0.160126C12.4908 -0.161417 14.1663 0.00361068 15.689 0.634341C17.2117 1.26507 18.5132 2.33318 19.4289 3.70359C20.3446 5.074 20.8333 6.68516 20.8333 8.33334C20.8333 10.5435 19.9554 12.6631 18.3926 14.2259C16.8298 15.7887 14.7101 16.6667 12.5 16.6667ZM12.5 27.0833C12.4989 24.0049 13.6399 21.0356 15.7021 18.75H6.25C4.5924 18.75 3.00268 19.4085 1.83058 20.5806C0.65848 21.7527 0 23.3424 0 25L0 31.25H13.2271C12.7486 29.9128 12.5027 28.5035 12.5 27.0833ZM36.7729 31.25H50V25C50 23.3424 49.3415 21.7527 48.1694 20.5806C46.9973 19.4085 45.4076 18.75 43.75 18.75H34.2979C35.8029 20.4146 36.828 22.4564 37.2639 24.6578C37.6998 26.8591 37.5301 29.1375 36.7729 31.25Z" fill="white"/>
</g>
<defs>
<clipPath id="clip0_24_348">
<rect width="50" height="50" fill="white"/>
</clipPath>
</defs>
</svg>
